<?xml version="1.0" standalone="no"?>
<!DOCTYPE svg PUBLIC "-//W3C//DTD SVG 20010904//EN"
 "http://www.w3.org/TR/2001/REC-SVG-20010904/DTD/svg10.dtd">
<svg version="1.0" xmlns="http://www.w3.org/2000/svg"
 width="159.000000pt" height="43.000000pt" viewBox="0 0 159.000000 43.000000"
 preserveAspectRatio="xMidYMid meet">
<metadata>
Created by potrace 1.15, written by Peter Selinger 2001-2017
</metadata>
<g transform="translate(0.000000,43.000000) scale(0.100000,-0.100000)"
fill="#000000" stroke="none">
<path d="M0 215 l0 -215 795 0 795 0 0 215 0 215 -795 0 -795 0 0 -215z m318
12 c3 -35 2 -36 -90 -85 l-93 -51 -22 21 c-13 12 -23 25 -23 30 0 4 34 25 75
46 l76 38 -71 34 c-40 19 -74 38 -77 43 -3 5 5 19 18 33 l22 24 91 -49 c85
-47 91 -52 94 -84z m535 72 c33 -18 37 -28 37 -106 0 -58 -3 -73 -15 -73 -8 0
-15 4 -15 9 0 5 -13 4 -30 -2 -43 -16 -84 0 -88 36 -5 39 10 53 68 67 53 13
59 20 35 40 -14 12 -42 10 -77 -5 -13 -5 -18 -3 -18 8 0 8 12 20 28 25 37 14
50 14 75 1z m192 1 c33 -12 57 -67 49 -110 -12 -55 -75 -86 -125 -60 -17 10
-19 7 -19 -25 0 -24 -4 -35 -15 -35 -12 0 -15 19 -15 115 0 96 3 115 15 115 8
0 15 -5 15 -11 0 -5 10 -3 22 5 26 19 37 20 73 6z m248 -1 c33 -18 37 -28 37
-106 0 -58 -3 -73 -15 -73 -8 0 -15 4 -15 9 0 5 -13 4 -30 -2 -43 -16 -84 0
-88 36 -5 39 10 53 68 67 53 13 59 20 35 40 -14 12 -42 10 -77 -5 -13 -5 -18
-3 -18 8 0 8 12 20 28 25 37 14 50 14 75 1z"/>
</g>
</svg>
